<?xml version="1.0" encoding="utf-8"?>
<!-- Generator: Adobe Illustrator 16.0.0, SVG Export Plug-In . SVG Version: 6.00 Build 0)  -->
<!DOCTYPE svg PUBLIC "-//W3C//DTD SVG 1.1//EN" "http://www.w3.org/Graphics/SVG/1.1/DTD/svg11.dtd">
<svg version="1.1" id="Layer_1" xmlns="http://www.w3.org/2000/svg" xmlns:xlink="http://www.w3.org/1999/xlink" x="0px" y="0px"
	 width="64px" height="48px" viewBox="0 0 64 48" enable-background="new 0 0 64 48" xml:space="preserve">
<g>

				<linearGradient id="SVGID_1_" gradientUnits="userSpaceOnUse" x1="106.2607" y1="139.373" x2="157.3389" y2="139.373" gradientTransform="matrix(1 0 0 1 -97.6934 -116.3936)">
				<stop  offset="0" style="stop-color:#75C8EA"/>
				<stop  offset="1" style="stop-color:#1E4893"/>
			</linearGradient>
			<path fill="url(#SVGID_1_)" d="M30.913,15.085c0.046,0.058,0.096,0.115,0.139,0.178c0,0.052-0.01,0.095-0.02,0.149
				c-0.341,0.091-0.876,0.031-1.287,0.124c-0.978,0.192-1.876,0.583-2.388,1.248c-1.102,1.421-0.703,3.622,1.042,4.035
				c2.196,0.52,3.7-1.083,4.785-1.911c1.871-1.439,4.088-2.047,6.836-1.052c0.837,0.314,1.344,0.758,1.942,1.26
				c0.344-0.433,0.732-0.893,1.376-1.016c-0.9-0.364-1.473-0.152-2.065-0.893c-1.185-1.508-0.563-3.415,0.391-4.601
				c1.417-1.767,4.301-2.553,7.441-2.451c0.426-0.62,2.561-2.43,1.758-3.826c-0.339,1.651-1.231,2.281-2.896,2.599
				c-0.576,0.044-1.155,0.081-1.734,0.117c-0.81,0.133-1.492,0.024-2.114,0.27c-1.314,0.519-2.252,1.509-3.32,2.27
				c-1.984,1.42-5.109,3.026-8.726,2.183c-1.104-0.26-2.025-0.658-2.954-1.08C28.992,14.226,29.762,14.761,30.913,15.085z
				 M55.912,6.535c-0.651,0.29-1.254,0.947-1.522,1.618c-0.17,0.433-0.201,0.88-0.412,1.255c-0.342,0.562-0.814,1.014-1.378,1.344
				c-0.814,0.469-2.347,0.51-3.469,0.27c-0.345-0.075-0.593-0.287-1.069-0.211c-0.51,0.037-1.019,0.08-1.529,0.121
				c-1.783,0.353-3.218,0.925-4.149,2.12c-0.37,0.478-0.942,1.218-0.778,2.178c0.272,1.563,1.843,2.534,3.62,1.763
				c0.764-0.331,1.283-1.147,1.519-2.031c0.138-0.515,0.069-1.14-0.183-1.521c-0.813-1.258-3.477-0.046-3.135,1.313
				c0.248,0.98,1.501,0.668,1.799-0.059c0.172-0.446-0.129-0.765,0.141-1.046c0.073,0.022,0.149,0.041,0.218,0.061
				c0.384,0.182,0.341,0.991,0.177,1.403c-0.36,0.861-2.069,1.351-2.694,0.391c-1.154-1.793,1.799-3.906,3.562-2.84
				c0.858,0.521,1.185,1.938,0.655,3.018c-0.542,1.096-1.597,2.047-2.633,2.661c-0.485,0.285-0.976,0.436-1.404,0.774
				c-0.579,0.464-0.76,1.681-1.762,1.668c-0.314-0.28-0.431-0.634-0.686-0.982c-0.522-0.721-1.373-1.302-2.269-1.645
				c-2.854-1.088-5.535,1.637-7.231,2.661c-0.757,0.465-1.966,1.007-3.199,0.631c-3.269-1.014-2.419-6.479,0.807-6.818
				c-0.369-0.471-0.794-1.282-0.479-2.178c-0.339-0.306-1.035-0.376-1.489-0.538c-1.293-0.46-2.806-0.916-4.422-0.984
				c0.039,0.619,0.065,1.208-0.15,1.704c-0.555,1.282-2.796,2.401-4.539,1.522c-1.026-0.515-1.892-2.143-1.076-3.56
				c0.206-0.353,0.522-0.603,0.774-0.92c-0.297-0.096-0.594-0.196-0.896-0.3c-1.316-0.25-2.178,0.71-2.329,1.645
				c-2.234,0.31-5.366,1.667-5.734,3.732c0.783-0.152,2.563,0.824,3.105,1.229c2.104,1.541,2.645,3.707,5.825,4.355
				c1.439,0.299,3.579,0.197,4.808-0.174c0.805-0.247,1.914-0.695,2.714-0.092c1.399,1.047-0.364,2.967-1.756,2.9v0.024
				c0.98,2.935-2.227,3.622-1.168,5.894c1.53-0.1,2.225,0.543,2.572,1.695c0.315,1.052-0.095,2.286-0.809,2.604
				c-1.099,0.489-2.232-0.194-2.421-1.105c-0.24-1.189,1.261-1.652,1.617-0.78c-0.037,0.501-0.443,0.121-0.688,0.059
				c-1.118,0.704,0.49,2.04,1.4,1.289c1.18-0.97-0.381-2.695-1.194-2.929c-0.583-0.174-1.122,0.054-1.458,0.297
				c-1.578,1.135-1.12,3.718-0.061,5.018c0.337,0.409,0.859,0.602,1.436,0.779c2.188,0.671,3.896-0.617,3.942-2.659
				c0.063,0.036,0.075,0.069,0.114,0.117v-1.373c1.907,0.109,2.762-0.21,3.382-1.641c0.798-1.857-0.054-4.246-1.586-4.723
				c-1.83-0.568-3.656,2.021-2.506,3.554c0.401,0.539,1.74,0.924,2.266,0.211c0.443-0.591,0.141-1.4-0.688-1.373
				c-0.157,0.145-0.291,0.258-0.358,0.507h-0.029c-0.197-0.796,0.379-1.583,1.256-1.228c0.727,0.291,1.144,1.614,0.627,2.483
				c-1.211,2.044-3.78,0.581-4.299-1.103c-0.604-1.962,1.605-4.42,3.672-4.006c0.56,0.111,0.893,0.395,1.258,0.693
				c0.345,0.27,0.724,0.668,0.867,1.132c0.02,0.007,0.039,0.021,0.057,0.03c0.34-2.1,2.057-3.731,3.941-4.31
				c1.933-0.583,4.284-0.071,5.202,1.083c1.244,1.562,1.445,3.734,0.148,5.378c-0.217,0.276-0.474,0.588-0.833,0.714
				c-0.01,0.018-0.02,0.042-0.028,0.055c1.991-0.137,3.865,1.377,4.355,2.785c0.635-0.171,1.186-1.103,1.348-1.765
				c0.638,0.192,1.476,0.531,2.385,0.391c2.109-0.337,3.875-1.464,4.604-3.168c1.034-2.4,0.112-5.567-1.404-6.781
				c-3.45-2.772-9.77,1.815-6.872,5.674c1.37,1.825,5.843,0.471,5.437-2.001c-0.144-0.877-0.571-1.762-1.373-1.967
				c-1.227-0.319-2.355,1.067-1.553,2.084c0.374,0.112,0.687,0.021,0.865-0.236c-0.401-0.521,0.348-1.062,0.628-0.569
				c0.299,0.311-0.054,0.925-0.238,1.134c-0.807,0.932-2.106,0.374-2.331-0.74c-0.267-1.341,1.639-2.603,2.931-2.309
				c0.894,0.213,1.47,0.988,1.728,1.829c0.814,2.607-2.166,5.125-4.75,4.476c-1.253-0.31-2.076-1.192-2.659-2.179
				c-0.769-1.311-0.56-2.89,0.155-4.065c0.702-1.159,3.609-3.574,5.7-3.222c0.944,0.158,1.587,0.407,2.266,0.778
				c0.399-3.532,4.528-2.792,5.95-5.141c0.399-0.645,0.548-1.442,0.69-2.357c0.221-1.461-0.523-2.833,0.204-4.036
				c0.643-1.058,1.587-0.68,2.689-0.449V7.497C58.617,6.995,57.632,5.779,55.912,6.535z M20.484,13.232
				c2.499-1.071,0.849-3.889-1.704-3.824c-0.748,0.278-1.189,0.534-1.495,1.226C16.334,12.823,18.641,14.021,20.484,13.232z
				 M21.799,25.538c0.267-0.331,0.71-0.51,0.866-0.955c0.224-0.635-0.054-1.467-0.122-2.058c1.153,0.017,3.059-0.619,2.157-1.829
				c-0.341-0.449-1.339-0.3-1.855-0.114c-1.489,0.533-3.558,1.271-5.678,0.682c-2.939-0.82-3.955-3.86-6.484-5.107
				c0.32,0.636,0.642,1.275,0.958,1.912c1.563,3.569,2.847,5.744,5.858,7.861c1.041,0.728,2.232,0.866,3.374,1.462
				C21.071,26.664,21.39,26.051,21.799,25.538z M36.613,25.84c-0.484-0.871-1.717-0.406-1.909,0.417
				c-0.531,2.211,1.849,3.372,3.523,2.357c1.127-0.679,1.982-2.789,1.016-4.299c-0.626-0.981-1.874-1.353-3.527-1.32
				c-0.395,0.095-0.795,0.182-1.197,0.274c-1.221,0.474-2.231,1.526-2.743,2.714c-1.119,2.592,0.307,4.484,1.971,5.465
				c0.334,0.203,0.742,0.461,1.19,0.512c0.721-0.619,1.237-1.729,2.308-1.971v-0.031c-0.273-0.02-0.539-0.041-0.807-0.057
				c-0.565-0.112-1.101-0.226-1.523-0.482c-1.088-0.659-1.735-3.344-0.479-4.357c0.808-0.655,2.508-0.661,2.924,0.355
				c0.424,1.02-0.124,2.223-1.136,2.208c-0.132-0.127-0.205-0.257-0.239-0.507C36.252,26.811,36.97,26.468,36.613,25.84z
				 M42.8,32.591c-0.361-0.774-1.793-1.732-2.689-2.006c-2.142-0.645-4.91,1.696-4.48,3.797c0.328,1.616,1.968,2.678,3.558,1.492
				c0.915-0.689,1.166-3.334-0.602-2.809c-0.36,0.502-0.056,0.721-0.028,1.317c-0.062,0.057-0.121,0.113-0.178,0.18
				c-1.392,0.104-0.831-2.871,0.863-2.391c1.759,0.492,2.04,2.951,0.928,4.363c-0.318,0.396-0.84,0.609-1.408,0.772
				c-0.68,0.194-1.62,0.243-2.272-0.028c-1.136-0.472-2.671-2.485-1.973-4.273c-1.872-0.309-2.773-1.732-3.727-2.986
				c-0.291,1.42-1.916,2.843-3.706,2.542c-0.021,0.458-0.039,0.931-0.064,1.399c1.13,1.204,2.608,2.174,5.02,1.821
				c0.858,1.709,2.288,3.224,4.334,3.734c3.219,0.809,7.307-1.819,6.779-5.108C43.05,33.777,43.047,33.099,42.8,32.591z"/>
		</g>
</svg>
